<svg width="445" height="528" viewBox="0 0 445 528" fill="none" xmlns="http://www.w3.org/2000/svg">
<path d="M418.544 110.949C395.439 75.7513 355.485 50.267 312.752 38.3076L307.117 59.8224C307.586 58.9192 308.342 58.197 309.268 57.7697C312.002 56.6056 313.87 57.4443 314.731 58.5145C315.729 56.7556 317.322 55.4066 319.226 54.7077C323.736 53.1303 326.8 57.2725 328.033 60.9575C330.017 66.8818 328.706 72.2879 326.8 73.0936C325.747 73.5627 324.567 73.6654 323.45 73.3852C322.332 73.1051 321.341 72.4583 320.637 71.5491C320.504 73.1655 320.27 74.5113 317.302 75.7912C312.857 77.7051 307.944 71.9295 306.779 68.9504C306.192 67.3922 305.932 65.7305 306.017 64.0684L301.581 81.1324L293.964 79.2016L305.183 36.3658C285.153 31.4018 264.449 29.7029 243.873 31.335C246.065 35.3308 247.532 39.6799 248.208 44.183C250.986 60.5342 243.29 75.0324 231.009 76.5759C226.947 77.0831 232.504 76.7247 233.193 76.7247L232.704 89.0265C235.666 88.1 245.541 91.4376 248.708 94.4546C270.648 90.3444 337.007 72.2909 337.007 72.2909L340.341 85.4094C338.463 85.8837 334.484 87.0647 334.484 87.0647C334.484 87.0647 340.598 109.129 340.074 109.015L363.174 103.537L366.509 116.649L330.389 126.249L323.721 128.009L328.499 146.87L274.679 160.225L274.773 160.446C302.234 153.748 333.387 146.103 337.113 144.889C338.358 151.542 341.375 157.809 325.544 163.711C317.514 166.706 317.33 162.79 306.267 165.267C303.222 165.951 296.33 169.592 287.561 174.419C290.545 189.667 291.37 202.001 290.34 206.106C286.944 219.318 212.86 232.403 198.383 226.981L198.755 238.151L176.666 242.52C174.315 242.99 171.873 242.511 169.877 241.188C167.88 239.865 166.493 237.806 166.019 235.465L141.564 113.621C141.333 112.462 141.334 111.268 141.566 110.109C141.799 108.949 142.259 107.847 142.92 106.865C143.581 105.883 144.43 105.041 145.419 104.387C146.407 103.732 147.516 103.278 148.68 103.052L182.206 96.4314C184.551 95.9694 186.984 96.4504 188.975 97.7693C190.965 99.0881 192.351 101.138 192.83 103.471L194.496 111.823C198.692 103.455 204.619 96.7129 212.796 92.6865C212.331 84.6938 211.293 76.7444 209.689 68.8995C208.556 69.3634 207.381 69.7182 206.181 69.9588C198.284 71.4373 193.267 69.7441 185.514 71.0619C168.938 73.9253 168.493 92.4389 142.043 96.2996C138.592 96.8014 135.101 96.9623 131.619 96.7798C105.995 127.774 85.262 165.259 65.7512 198.75C29.3764 261.202 -3.01535 309.792 0.223932 361.129C3.33091 412.575 41.9567 466.621 97.6428 497.905C153.213 529.194 225.831 537.728 284.628 511.882C285.476 511.514 286.321 511.135 287.162 510.746L286.522 506.619L302.821 502.565C352.872 473.113 391.604 417.611 417.679 348.025C446.952 270.112 460.278 174.637 418.544 110.949ZM314.892 55.784C312.719 53.9749 310.035 42.2412 316.353 42.7923C322.86 43.3444 317.97 53.6045 314.892 55.789V55.784ZM149.55 496.995L117.809 438.636L135.881 429.462L148.537 449.26L158.54 492.29L149.55 496.995Z" fill="#F2F2F2"/>
<path fill-rule="evenodd" clip-rule="evenodd" d="M196.572 225.27C191.837 218.681 176.234 149.303 194.522 111.679L192.838 103.285C192.606 102.123 192.147 101.018 191.486 100.033C190.825 99.0474 189.976 98.2015 188.987 97.5433C187.998 96.885 186.889 96.4273 185.722 96.1963C184.555 95.9652 183.354 95.9654 182.188 96.1968L148.654 102.841C147.487 103.071 146.377 103.528 145.387 104.186C144.398 104.844 143.548 105.69 142.887 106.675C142.226 107.661 141.767 108.766 141.535 109.929C141.304 111.091 141.304 112.287 141.538 113.449L165.993 235.749C166.224 236.911 166.684 238.016 167.345 239.001C168.006 239.986 168.855 240.831 169.844 241.489C170.833 242.146 171.943 242.603 173.109 242.834C174.276 243.064 175.476 243.063 176.642 242.831L198.738 238.446L198.343 226.491C197.655 226.246 197.045 225.825 196.572 225.27Z" fill="black"/>
<path d="M287.898 173.878C290.878 189.177 291.707 201.563 290.677 205.677C287.042 219.907 202.753 233.916 196.572 225.3C190.747 217.195 168.457 114.008 213.12 91.9088" stroke="black" stroke-width="2.5" stroke-miterlimit="10" stroke-linecap="round"/>
<path d="M260.327 105.385C262.792 108.491 265.043 111.76 267.064 115.169" stroke="black" stroke-width="2.5" stroke-miterlimit="10" stroke-linecap="round"/>
<path d="M233.008 88.6112C238.674 89.2872 244.079 91.3699 248.727 94.6683" stroke="black" stroke-width="2.5" stroke-miterlimit="10" stroke-linecap="round"/>
<path d="M233.983 96.5732C232.604 92.9411 232.87 81.3691 233.504 76.2585" stroke="black" stroke-width="2.5" stroke-linecap="round" stroke-linejoin="round"/>
<path d="M208.997 64.5696C211.543 73.3452 212.638 84.9791 213.377 96.2637C215.6 98.1965 219.892 98.9103 224.001 98.8714" stroke="black" stroke-width="2.5" stroke-linecap="round" stroke-linejoin="round"/>
<path fill-rule="evenodd" clip-rule="evenodd" d="M293.959 79.3813L310.879 14.5984L318.416 16.5582L301.513 81.3411L293.959 79.3813Z" stroke="black" stroke-width="2.5" stroke-linecap="round" stroke-linejoin="round"/>
<path d="M298.57 73.2573L302.906 74.3645" stroke="black" stroke-width="2.5" stroke-linecap="round" stroke-linejoin="round"/>
<path d="M300.793 64.7413L305.123 65.8485" stroke="black" stroke-width="2.5" stroke-linecap="round" stroke-linejoin="round"/>
<path d="M303.015 56.2253L307.345 57.3324" stroke="black" stroke-width="2.5" stroke-linecap="round" stroke-linejoin="round"/>
<path d="M305.238 47.7092L309.568 48.8164" stroke="black" stroke-width="2.5" stroke-linecap="round" stroke-linejoin="round"/>
<path d="M307.461 39.1932L311.791 40.3003" stroke="black" stroke-width="2.5" stroke-linecap="round" stroke-linejoin="round"/>
<path d="M309.684 30.6551L314.014 31.7623" stroke="black" stroke-width="2.5" stroke-linecap="round" stroke-linejoin="round"/>
<path d="M311.907 22.1621L316.237 23.2693" stroke="black" stroke-width="2.5" stroke-linecap="round" stroke-linejoin="round"/>
<path fill-rule="evenodd" clip-rule="evenodd" d="M319.225 54.8026C323.735 53.2192 326.801 57.3774 328.036 61.0763C330.02 67.0226 328.708 72.4497 326.802 73.2564C325.748 73.7264 324.567 73.8285 323.448 73.5462C322.329 73.2639 321.339 72.6137 320.637 71.7009C320.504 73.3233 320.27 74.674 317.301 75.9589C312.854 77.8798 307.941 72.0833 306.778 69.0932C305.232 65.1616 305.961 59.2932 309.283 57.8756C312.019 56.7075 313.886 57.5491 314.748 58.6233C315.73 56.855 317.32 55.4985 319.225 54.8026Z" fill="#F6F5F5" stroke="black" stroke-width="2.5" stroke-linecap="round" stroke-linejoin="round"/>
<path fill-rule="evenodd" clip-rule="evenodd" d="M316.352 42.8372C322.884 43.3913 317.97 53.6844 314.89 55.8768C312.717 54.0608 310.033 42.2831 316.352 42.8372Z" fill="black"/>
<path d="M198.215 170.179C197.82 182.033 198.865 200.588 215.153 204.342C233.902 208.665 295.534 167.05 306.596 164.57C317.659 162.09 317.869 165.998 325.874 162.98C341.715 157.056 338.698 150.76 337.447 144.088C330.749 146.259 235.386 169.354 232.168 170.196C231.794 169.399 231.471 168.58 231.201 167.743" stroke="black" stroke-width="2.5" stroke-linecap="round" stroke-linejoin="round"/>
<path d="M202.828 112.549C205.058 110.922 207.721 109.989 210.482 109.869C213.549 109.69 216.606 110.353 219.32 111.785" stroke="black" stroke-width="2.5" stroke-miterlimit="10" stroke-linecap="round"/>
<path d="M234.295 136.807C237.463 150.485 236.952 164.598 235.023 166.353C231.133 169.919 194.207 172.51 191.445 168.462C189.021 164.919 187.476 123.547 202.817 112.495" stroke="black" stroke-width="2.5" stroke-miterlimit="10" stroke-linecap="round"/>
<path d="M335.692 124.252L267.222 141.417C260.946 142.989 256.928 148.505 258.245 153.73C259.562 158.956 265.727 161.917 272.008 160.342L340.48 143.177" stroke="black" stroke-width="2.5" stroke-linecap="round" stroke-linejoin="round"/>
<path d="M328.823 146.2L324.042 127.269" stroke="black" stroke-width="2.5" stroke-linecap="round" stroke-linejoin="round"/>
<path fill-rule="evenodd" clip-rule="evenodd" d="M266.263 127.799L363.204 103.392L366.539 116.553L269.604 140.965L266.263 127.799Z" fill="black"/>
<path d="M267.049 115.216L264.343 104.585L334.53 86.914L340.089 108.957L269.931 126.614L267.041 115.214" stroke="black" stroke-width="2.5" stroke-linecap="round" stroke-linejoin="round"/>
<path fill-rule="evenodd" clip-rule="evenodd" d="M240.092 96.8387L337.033 72.4267L340.367 85.5931L243.438 110L240.092 96.8387Z" stroke="black" stroke-width="2.5" stroke-linecap="round" stroke-linejoin="round"/>
<path d="M268.796 143.466L272.265 157.419" stroke="black" stroke-width="2.5" stroke-miterlimit="10" stroke-linecap="round"/>
<path fill-rule="evenodd" clip-rule="evenodd" d="M271.316 112.038L291.121 107.055L292.7 113.273L272.895 118.256L271.316 112.038Z" fill="black"/>
<path d="M247.074 103.095L287.028 92.9022" stroke="black" stroke-width="2.5" stroke-miterlimit="10" stroke-linecap="round"/>
<path fill-rule="evenodd" clip-rule="evenodd" d="M117.806 438.307L149.562 496.883L158.517 492.177L148.512 448.989L135.856 429.121L117.806 438.307Z" stroke="black" stroke-width="2.5" stroke-miterlimit="10" stroke-linecap="round"/>
<path fill-rule="evenodd" clip-rule="evenodd" d="M289.599 526.528L355.401 514.9L353.733 504.933L309.426 500.787L286.508 506.507L289.599 526.528Z" stroke="black" stroke-width="2.5" stroke-miterlimit="10" stroke-linecap="round"/>
<path d="M244.292 30.4345C246.087 25.9049 247.128 23.8952 246.549 19.4765C244.037 5.89471 230.641 0.0303206 218.762 2.58314C198.151 7.01288 188.193 18.0867 175.884 20.1544C157.207 23.2663 139.809 16.2787 120.203 21.4283C93.6438 28.4048 89.6869 47.3029 93.5556 64.2581C99.954 92.3031 124.166 98.5869 142.331 95.9402C168.791 92.0645 169.24 73.482 185.829 70.6416C193.583 69.3178 198.614 71.013 206.501 69.5344C207.704 69.2902 208.88 68.9325 210.014 68.4662" stroke="black" stroke-width="2.5" stroke-linecap="round" stroke-linejoin="round"/>
<path d="M240.858 26.0816C245.067 30.749 247.366 36.7901 248.517 43.6009C251.296 60.0121 243.598 74.5692 231.319 76.1137C227.198 76.5644 223.043 75.6497 219.497 73.5109" stroke="black" stroke-width="2.5" stroke-linecap="round" stroke-linejoin="round"/>
<path d="M216.497 48.0027C213.345 49.7299 210.277 51.2195 207.603 52.3656" stroke="black" stroke-width="2.5" stroke-linecap="round" stroke-linejoin="round"/>
<path d="M240.457 24.3215C240.88 26.5359 239.868 29.0498 237.916 31.6415" stroke="black" stroke-width="2.5" stroke-linecap="round" stroke-linejoin="round"/>
<path d="M210.728 62.8694C209.987 63.444 209.119 63.8343 208.197 64.008C207.274 64.1817 206.324 64.1337 205.423 63.8679C204.523 63.6022 203.7 63.1265 203.021 62.4802C202.342 61.8339 201.828 61.0357 201.522 60.1518C201.215 59.268 201.124 58.324 201.257 57.3982C201.39 56.4724 201.742 55.5915 202.285 54.8286C202.828 54.0657 203.546 53.4428 204.379 53.0117C205.212 52.5806 206.137 52.3536 207.076 52.3496C207.676 52.3497 208.273 52.4392 208.848 52.6152" stroke="black" stroke-width="2.5" stroke-linecap="round" stroke-linejoin="round"/>
<path fill-rule="evenodd" clip-rule="evenodd" d="M287.339 208.463C275.172 217.875 233.518 226.181 210.967 226.513C221.823 261.668 286.53 506.54 286.53 506.54L307.441 501.318L287.339 208.463Z" fill="black"/>
<path fill-rule="evenodd" clip-rule="evenodd" d="M196.568 224.384C196.347 224.057 196.15 223.715 195.979 223.359C200.188 245.181 218.496 339.259 224.266 353.406C215.595 360.416 135.886 429.595 135.886 429.595L146.141 445.763L260.091 384.419L240.715 223.847C219.71 227.474 199.499 228.431 196.568 224.384Z" fill="black"/>
<path d="M198.746 238.466L176.65 242.851C175.484 243.083 174.284 243.084 173.117 242.854C171.951 242.623 170.841 242.166 169.852 241.509C168.863 240.851 168.014 240.006 167.353 239.021C166.692 238.036 166.232 236.931 166 235.769L141.546 113.469C141.312 112.307 141.312 111.111 141.543 109.949C141.775 108.786 142.234 107.681 142.895 106.695C143.556 105.71 144.406 104.864 145.395 104.206C146.385 103.548 147.494 103.091 148.662 102.861L182.196 96.2168C184.548 95.7504 186.989 96.2324 188.985 97.5569C190.981 98.8815 192.367 100.94 192.841 103.282L194.509 111.668" stroke="black" stroke-width="2.5" stroke-linecap="round" stroke-linejoin="round"/>
<path d="M191.06 107.259C193.911 104.892 197.288 103.237 200.91 102.431" stroke="#BCBCBC" stroke-width="4" stroke-linecap="round" stroke-linejoin="round"/>
<path d="M200.761 188.508C194.748 184.293 189.801 178.745 186.308 172.301" stroke="#BCBCBC" stroke-width="4" stroke-linecap="round" stroke-linejoin="round"/>
<path d="M200.902 101.861C218.322 98.0517 236.955 115.427 242.524 140.676C244.67 149.92 244.643 159.533 242.446 168.765" stroke="#BCBCBC" stroke-width="4" stroke-linecap="round" stroke-linejoin="round"/>
</svg>
