<svg width="22" height="24" viewBox="0 0 22 24" fill="none" xmlns="http://www.w3.org/2000/svg">
<path d="M14.0002 0V9.41479C14.0106 11.2611 13.6566 13.0913 12.9583 14.8007C12.2601 16.5101 11.2313 18.0652 9.93099 19.3769C8.63064 20.6885 7.0842 21.7312 5.38016 22.445C3.67612 23.1588 1.84794 23.5299 0.000222636 23.537V14.1222C-0.0101773 12.2759 0.343876 10.4457 1.04212 8.73628C1.74037 7.02687 2.7691 5.47182 4.06945 4.16012C5.3698 2.84842 6.91624 1.80582 8.62028 1.09198C10.3243 0.378136 12.1525 0.00706489 14.0002 0Z" fill="#19191B"/>
<g opacity="0.5">
<path opacity="0.5" d="M22.0002 5.79559L18.6782 14.6628C17.286 18.23 14.5529 21.1117 11.0628 22.6922C7.57273 24.2727 3.60245 24.4267 0.000244141 23.1213L3.32224 14.2541C4.71445 10.6869 7.44758 7.80521 10.9377 6.22469C14.4278 4.64417 18.398 4.49017 22.0002 5.79559Z" fill="black"/>
</g>
</svg>
