<svg width="541" height="448" viewBox="0 0 541 448" fill="none" xmlns="http://www.w3.org/2000/svg">
<path d="M403.522 57.1402C372.228 39.3605 337.029 31.92 300.567 28.963L302.74 33.9357L302.271 39.4199L300.51 43.4573L295.609 46.5866L292.179 47.7283L289.024 55.5907L286.663 66.827L302.141 66.6387L317.007 67.0495L320.255 70.4727L320.764 76.8792L320.071 95.27L324.154 99.9297L328.083 105.594L329.141 109.243L327.362 113.634L331.795 119.126L344.242 136.444L358.234 156.331L367.892 171.332L370.808 175.152L377.893 179.149L380.34 184.168L379.854 189.787L377.207 193.835L372.518 196.09L366.801 195.525L362.575 192.275L359.762 184.516L344.046 168.791L320.557 142.852L320.797 157.126V179.183L320.557 188.89L317.736 192.475L315.135 193.651L306.168 193.805L232.808 182.215L230.621 181.384C229.774 181.212 228.961 180.903 228.214 180.47C228.1 180.395 227.994 180.306 227.9 180.208C227.36 179.258 227.004 178.216 226.848 177.136C225.752 171.267 225.138 165.319 225.012 159.35L224.892 158.208L224.921 155.987C224.863 152.564 224.921 148.856 225.058 145.025L225.109 141.028L225.526 137.676C225.87 133.576 226.372 129.38 227.064 125.177V125.102C227.676 121.419 228.437 117.73 229.351 114.11V114.07C230.737 108.579 232.625 103.227 234.993 98.0821C232.376 96.9672 229.884 95.5777 227.56 93.937L227.468 93.8746C226.949 93.5091 226.428 93.1376 225.925 92.7328L221.511 89.5301L218.31 85.8128C217.692 85.147 217.122 84.5019 216.597 83.8777C215.796 82.9305 215.064 81.9268 214.407 80.8743L213.481 79.5322L213.582 79.0701C213.544 78.953 213.517 78.8327 213.502 78.7106C213.488 77.6607 213.759 76.6266 214.286 75.7183L203.988 63.3272L197.264 51.5533L196.452 45.8033L197.933 41.5947L204.657 34.4522L213.353 27.8806C172.248 29.9476 134.785 37.2099 113.783 60.055C86.858 89.3629 87.2468 144.588 83.1646 194.959C79.0824 245.33 70.4363 290.945 83.5535 333.648C94.2739 368.787 119.804 402.091 150.938 416.353C200.208 382.3 294.169 332.312 384.064 297.774C385.658 296.35 387.278 294.915 388.924 293.468C425.775 260.948 474.955 220.383 480.86 176.025C486.716 131.582 449.298 83.2484 403.522 57.1402Z" fill="#F8F8F8"/>
<path d="M259.679 34.8529C258.988 37.2529 258.639 39.7385 258.644 42.236C258.644 51.5331 263.339 59.4468 269.909 62.424L269.074 70.4868" stroke="black" stroke-width="2.5" stroke-miterlimit="10" stroke-linecap="round"/>
<path d="M275.328 78.1729C279.365 79.0982 283.808 79.3157 284.194 78.0128C284.766 75.9669 287.956 60.7788 289.065 55.4597C290.468 53.1796 291.477 50.6801 292.05 48.0656" stroke="black" stroke-width="2.5" stroke-miterlimit="10" stroke-linecap="round"/>
<path d="M417.924 285.668C413.15 284.034 397.529 263.383 397.529 238.874C397.529 210.429 427.691 156.504 430.55 137.285C432.373 125.074 440.601 17.4917 503.087 17.4917C537.16 17.4917 540.002 84.0686 540.002 113.846C540.002 183.405 438.797 242.656 438.797 278.787C432.011 281.573 425.036 283.872 417.924 285.668Z" fill="black"/>
<path d="M425.609 282.977C425.609 227.198 467.264 125.562 503.903 89.7958" stroke="white" stroke-width="4" stroke-miterlimit="10" stroke-linecap="round"/>
<path d="M185.074 394.497C181.883 393.549 173.209 382.498 173.209 368.257C173.209 354.543 177.062 334.543 177.062 315.989C177.062 305.669 173.209 302.012 173.209 289.732C173.209 270.161 191.768 264.201 198.275 264.201C207.852 264.201 212.976 272.389 212.976 276.727C212.976 282.778 211.264 287.372 211.264 294.069C211.264 307.158 215.837 308.8 215.358 320.081C213.928 353.058 200.229 385.298 188.187 392.611L185.074 394.497Z" fill="black"/>
<path d="M185.07 394.5C188.981 391.128 167.082 284.501 148.088 265.632C127.423 245.101 110.436 234.261 104.827 227.536C94.8804 215.597 88.5455 170.58 44.7531 170.58C33.1673 170.58 5.87209 180.151 0.960708 220.66C-0.646195 233.957 -3.56784 254.299 24.1233 283.779C42.7744 303.642 66.1032 296.802 88.9031 318.322C105.319 333.813 103.021 357.179 118.35 376.92C130.617 392.688 162.459 413.966 185.07 394.5Z" fill="black"/>
<path d="M179.699 397.04C179.699 370.281 95.23 249.505 61.4316 232.231" stroke="white" stroke-width="4" stroke-miterlimit="10" stroke-linecap="round"/>
<path d="M185.071 394.498C184.23 388.155 180.685 334.27 190.731 314.636" stroke="white" stroke-width="4" stroke-miterlimit="10" stroke-linecap="round"/>
<path d="M118.358 444C143.63 407.926 369.444 284.853 505.098 262.121" stroke="black" stroke-width="7" stroke-miterlimit="10" stroke-linecap="round"/>
<path d="M251.977 76.9903V73.3897C251.977 72.4891 252.154 71.5972 252.499 70.7652C252.844 69.9331 253.349 69.177 253.987 68.5402C254.624 67.9033 255.38 67.3982 256.213 67.0536C257.045 66.709 257.938 66.5317 258.839 66.5319H269.48" stroke="black" stroke-width="2.5" stroke-miterlimit="10" stroke-linecap="round"/>
<path d="M320.551 142.833V186.98C320.551 188.799 319.828 190.543 318.541 191.829C317.254 193.115 315.509 193.838 313.689 193.838H303.917" stroke="black" stroke-width="2.5" stroke-miterlimit="10" stroke-linecap="round"/>
<path d="M286.736 66.533H313.689C315.509 66.533 317.254 67.2554 318.541 68.5415C319.828 69.8275 320.551 71.5718 320.551 73.3905V95.7513" stroke="black" stroke-width="2.5" stroke-miterlimit="10" stroke-linecap="round"/>
<path d="M257.873 401.972V416.829H217.505V410.543L242.514 399.065L257.873 401.972Z" stroke="black" stroke-width="2.5" stroke-miterlimit="10" stroke-linecap="round"/>
<path d="M345.44 387.726C347.482 392.297 352.302 404.144 352.302 404.144L332.159 416.8H313.907L311.768 409.806L334.697 392.269L345.44 387.726Z" stroke="black" stroke-width="2.5" stroke-miterlimit="10" stroke-linecap="round"/>
<path d="M263.965 7.57371C264.102 6.94674 264.11 6.29866 263.99 5.66826C263.871 5.03786 263.625 4.43808 263.268 3.90481C261.043 0.830941 254.745 1.55083 249.21 5.53386C247.114 7.0105 245.333 8.88875 243.971 11.0594C243.79 10.979 243.596 10.9342 243.399 10.9275C240.712 10.9275 196.038 34.8076 196.461 45.8243C196.827 55.2886 207.897 69.636 214.363 75.6578" stroke="black" stroke-width="2.5" stroke-linecap="round" stroke-linejoin="round"/>
<path d="M234.905 57.8593C230.331 53.2882 223.772 47.7849 222.171 46.2807C224.973 44.8178 247.398 22.612 249.931 20.103C252.6 19.5291 255.114 18.3869 257.301 16.7543C261.052 14.0519 263.488 10.5431 263.974 7.61121" stroke="black" stroke-width="2.5" stroke-linecap="round" stroke-linejoin="round"/>
<path d="M250.107 78.3441C247.58 68.3039 242.834 58.006 237.911 57.5499C228.762 56.7042 212.855 73.8929 213.496 78.773C213.919 82.0069 224.297 93.6298 235.024 98.076" stroke="black" stroke-width="2.5" stroke-miterlimit="10" stroke-linecap="round"/>
<path d="M285.426 72.6354C289.565 75.0982 293.008 79.173 295.838 84.3272" stroke="black" stroke-width="2.5" stroke-miterlimit="10" stroke-linecap="round"/>
<path d="M306.874 130.903C308.451 154 306.033 175.473 302.494 178.245C294.489 184.531 231.879 184.817 227.877 180.245C224.028 175.851 215.165 78.0058 269.044 70.4233" stroke="black" stroke-width="2.5" stroke-miterlimit="10" stroke-linecap="round"/>
<path d="M283.099 35.5728C284.413 37.7617 285.832 39.7896 287.29 40.2819C287.377 40.3104 287.463 40.3441 287.547 40.3826" stroke="black" stroke-width="2.5" stroke-linecap="round" stroke-linejoin="round"/>
<path d="M249.502 20.4832C249.012 21.1002 248.738 21.8613 248.724 22.6489C248.724 27.8605 248.861 34.8553 259.69 34.8553C260.411 32.3522 263.121 26.8547 266.209 24.409C266.78 24.6486 268.198 25.2487 269.919 25.9515" stroke="black" stroke-width="2.5" stroke-linecap="round" stroke-linejoin="round"/>
<path d="M293.282 47.2814C295.723 47.0126 302.739 45.9896 302.739 34.9497C302.739 30.6012 298.582 27.4639 298.582 25.0525C298.582 22.6412 300.006 18.3208 296.821 15.2299C292.951 11.4754 286.781 13.041 281.257 13.041C276.065 13.041 273.197 7.01208 266.116 7.01208C265.361 6.98887 264.615 7.18772 263.972 7.58396" stroke="black" stroke-width="2.5" stroke-linecap="round" stroke-linejoin="round"/>
<path d="M286.981 40.9101C287.433 40.4106 287.992 40.0189 288.615 39.7639C289.239 39.5088 289.911 39.3969 290.584 39.4365C291.256 39.476 291.911 39.6659 292.501 39.9922C293.09 40.3185 293.599 40.7729 293.989 41.3219C294.379 41.8708 294.641 42.5002 294.755 43.1638C294.869 43.8274 294.833 44.5081 294.649 45.1558C294.465 45.8034 294.137 46.4015 293.691 46.9059C293.245 47.4103 292.691 47.8081 292.07 48.07" stroke="black" stroke-width="2.5" stroke-miterlimit="10" stroke-linecap="round"/>
<path d="M366.321 194.46L325.754 395.453" stroke="black" stroke-width="7" stroke-miterlimit="10" stroke-linecap="round"/>
<path d="M387.186 91.3191L370.495 174.021" stroke="black" stroke-width="7" stroke-miterlimit="10" stroke-linecap="round"/>
<path d="M309.172 129.763C317.177 139.02 344.576 170.952 359.792 184.214C359.782 185.743 360.081 187.258 360.67 188.669C361.26 190.08 362.127 191.357 363.222 192.425C367.459 196.665 373.966 197.031 377.751 193.254C381.536 189.477 381.181 182.968 376.928 178.728C375.224 177.007 373.025 175.858 370.638 175.443C363.376 163.729 339.539 128.804 327.4 113.586" stroke="black" stroke-width="2.5" stroke-miterlimit="10" stroke-linecap="round"/>
<path d="M290.389 86.6515C305.18 75.6629 329.567 102.234 329.167 109.223C328.767 116.211 310.025 131.708 303.614 131.725C295.787 131.738 277.798 96.005 290.389 86.6515Z" stroke="black" stroke-width="2.5" stroke-miterlimit="10" stroke-linecap="round"/>
<path d="M303.694 176.26C303.426 176.921 303.016 177.516 302.493 178.003C297.501 181.922 271.24 183.511 251.228 183.037C260.845 230.727 327.274 386.12 332.552 394.371C336.657 395.251 346.046 391.149 347.51 388.508C348.927 385.96 309.503 196.305 303.694 176.26Z" fill="black"/>
<path d="M230.02 181.037C230.187 197.472 233.023 383.943 238.026 400.572C242.6 402.858 254.608 403.43 258.61 401.715C262.23 400.167 283.465 222.649 287.491 181.671C268.604 183.837 238.557 183.523 230.02 181.037Z" fill="black"/>
</svg>
